<?xml version="1.0" encoding="UTF-8" standalone="no"?>
<!DOCTYPE svg PUBLIC "-//W3C//DTD SVG 1.1//EN" "http://www.w3.org/Graphics/SVG/1.1/DTD/svg11.dtd">
<svg width="100%" height="100%" viewBox="0 0 3544 3544" version="1.1" xmlns="http://www.w3.org/2000/svg" xmlns:xlink="http://www.w3.org/1999/xlink" xml:space="preserve" xmlns:serif="http://www.serif.com/" style="fill-rule:evenodd;clip-rule:evenodd;stroke-linecap:round;stroke-linejoin:round;stroke-miterlimit:1.5;">
    <g transform="matrix(1.412548,0,0,1.412548,-845.191636,-661.27196)">
        <path d="M1612.398,1656.642L1956.13,2214.413L1161.454,2907.027L761.843,2478.638L762.891,2030.718" style="fill:white;stroke:white;stroke-width:0.71px;"/>
        <path d="M1350.969,956.37L1503.745,1354.515L1805.756,1581.63L1926.264,1487.104L1750.218,1046.722L1538.837,986.347" style="fill:white;stroke:white;stroke-width:0.71px;"/>
        <path d="M1791.847,1046.722L2234.389,1240.164L2245.168,1125.078L2500.226,1268.038L2943.298,2101.189L2833.29,2116.539" style="fill:white;stroke:white;stroke-width:0.71px;"/>
        <path d="M2234.979,1269L2071.022,1492.429L1963.612,1512.077L1791.847,1046.722L1986.326,1169.065L2264.883,1529.105L2071.022,1492.429L2511.139,2116.539L2684.042,1960.053L2805.86,2087.111L2606.504,2030.229L2511.139,2116.539L2774.423,2266.563L2941.376,2103.078" style="fill:white;stroke:white;stroke-width:0.71px;"/>
        <g transform="matrix(1,0,0,1,0,24.101588)">
            <path d="M859.15,927.815L1739,771.661L1927.888,1043.485L2196.515,1158.61L1865.011,545.983L859.15,927.815Z" style="fill:white;stroke:white;stroke-width:0.71px;"/>
        </g>
        <g transform="matrix(1,0,0,1,0,31.628865)">
            <path d="M2254.077,1053.079L2491.821,1183.462L2121.325,506.077L1979.096,545.983L2254.077,1053.079Z" style="fill:white;stroke:white;stroke-width:0.71px;"/>
        </g>
        <g transform="matrix(1,0,0,1,-47.966257,-89.4859)">
            <path d="M1974.231,677.403L2053.801,821.056L2196.515,773.399L2168.926,627.192L1974.231,677.403Z" style="fill:white;stroke:white;stroke-width:0.71px;"/>
        </g>
        <path d="M1963.465,1511.668L2211.755,2116.539L2774.371,2266.563L2067.04,1487.104" style="fill:white;stroke:white;stroke-width:0.71px;"/>
        <path d="M2638.618,2389.582L2382.931,2141.23L1963.465,1506.205L1810.779,1622.521L1494.314,1402.463L2004.64,2220.871" style="fill:white;stroke:white;stroke-width:0.71px;"/>
    </g>
</svg>
